<svg width="72" height="79" viewBox="0 0 72 79" fill="none" xmlns="http://www.w3.org/2000/svg">
<g clip-path="url(#clip0_179_1692)">
<path fill-rule="evenodd" clip-rule="evenodd" d="M34.2793 0.565557C35.5445 -0.144248 37.1021 -0.144248 38.3654 0.565557C44.6165 4.07324 63.4279 14.6315 69.6807 18.1392C70.946 18.8471 71.7247 20.1585 71.7247 21.5781C71.7247 28.5932 71.7247 49.7083 71.7247 56.7237C71.7247 58.1431 70.946 59.4545 69.6807 60.1643C63.4296 63.6719 44.6184 74.2302 38.3654 77.7379C37.1004 78.4477 35.5426 78.4477 34.2793 77.7379C28.0282 74.2302 9.21699 63.6719 2.96396 60.1643C1.70066 59.4545 0.921875 58.145 0.921875 56.7256C0.921875 49.7102 0.921875 28.5951 0.921875 21.5798C0.921875 20.1604 1.70066 18.849 2.96586 18.1392C9.21509 14.6315 28.0301 4.07324 34.2793 0.565557Z" fill="#283593"/>
<path fill-rule="evenodd" clip-rule="evenodd" d="M1.48824 58.5319C0.99275 57.8687 0.921875 57.2391 0.921875 56.3915C0.921875 49.4171 0.921875 28.4233 0.921875 21.447C0.921875 20.0349 1.69876 18.7311 2.96016 18.027C9.18894 14.5398 27.9368 4.04293 34.1656 0.553815C35.427 -0.152192 37.1356 -0.137216 38.397 0.568792C44.626 4.0558 63.3104 14.4635 69.5392 17.9505C70.0423 18.2338 70.4262 18.5746 70.769 19.0235L1.48824 58.5319Z" fill="#5C6BC0"/>
<path fill-rule="evenodd" clip-rule="evenodd" d="M36.3234 13.0728C50.7208 13.0728 62.4088 24.7581 62.4088 39.152C62.4088 53.546 50.7208 65.2313 36.3234 65.2313C21.9263 65.2313 10.2383 53.546 10.2383 39.152C10.2383 24.7581 21.9263 13.0728 36.3234 13.0728ZM36.3234 26.1123C43.5211 26.1123 49.3661 31.9542 49.3661 39.152C49.3661 46.3481 43.5211 52.1917 36.3234 52.1917C29.1258 52.1917 23.2808 46.3481 23.2808 39.152C23.2808 31.9542 29.1239 26.1123 36.3234 26.1123Z" fill="white"/>
<path fill-rule="evenodd" clip-rule="evenodd" d="M70.7651 19.0415C71.7266 19.9414 71.708 21.2975 71.708 22.3648C71.708 29.4342 71.6483 49.5414 71.7247 56.6107C71.7323 57.3484 71.4882 58.1253 71.1229 58.7102L35.5649 39.1506L70.7651 19.0415Z" fill="#3949AB"/>
<path fill-rule="evenodd" clip-rule="evenodd" d="M54.9556 31.6997H56.8188V46.602H54.9556V31.6997ZM60.5454 31.6997H62.4086V46.602H60.5454V31.6997Z" fill="white"/>
<path fill-rule="evenodd" clip-rule="evenodd" d="M51.229 41.0141H66.1349V42.8769H51.229V41.0141ZM51.229 35.4258H66.1349V37.2886H51.229V35.4258Z" fill="white"/>
</g>
<defs>
<clipPath id="clip0_179_1692">
<rect width="72" height="79" fill="white"/>
</clipPath>
</defs>
</svg>
