<svg width="84" height="84" viewBox="0 0 84 84" fill="none" xmlns="http://www.w3.org/2000/svg">
<g style="mix-blend-mode:luminosity">
<path d="M23.1 22.9029L17.6531 17.4561V56.6342L17.7187 58.4717C17.7187 59.3248 17.85 60.3092 18.1781 61.2936L61.2281 76.4529L71.9249 71.7279L23.1 22.9029Z" fill="#00C4B3"/>
<path d="M71.9249 71.7283L61.2281 76.4533L18.3093 61.2939C19.1625 64.4439 20.9343 67.9221 22.9031 69.9564L36.8812 83.8689L68.1187 83.9346L71.9249 71.7283Z" fill="#22D3C5"/>
<path d="M1.11564 42.7219C-0.262484 44.1656 0.459391 47.25 2.62502 49.5469L12.2719 59.2594L18.3094 61.425C18.1125 60.4406 17.85 59.4563 17.85 58.6031L17.7844 56.7656L17.6531 17.5219M71.925 71.7281L76.65 60.9656L61.5563 17.9156C60.5719 17.7187 59.5875 17.5219 58.7344 17.4563L56.8313 17.3906L17.7188 17.4563" fill="#0075C9"/>
<path d="M61.425 17.9155C61.5562 17.9155 61.5562 17.9155 61.425 17.9155C61.5562 17.9155 61.5562 17.9155 61.425 17.9155ZM71.925 71.728L83.5406 67.9218V35.9624L70.1531 22.5093C68.1844 20.5405 64.7062 18.703 61.4906 17.9155L76.65 60.9655" fill="#00A8E1"/>
<path d="M59.3906 11.9437L49.6781 2.29687C47.4469 0.0656211 44.4281 -0.590629 42.8531 0.787496L17.6531 17.4562H56.7L58.6031 17.5219C59.4563 17.5219 60.4406 17.6531 61.425 17.9812L59.3906 11.9437Z" fill="#00C4B3"/>
</g>
</svg>
