<svg width="94" height="94" viewBox="0 0 94 94" fill="none" xmlns="http://www.w3.org/2000/svg">
<g style="mix-blend-mode:luminosity">
<path fill-rule="evenodd" clip-rule="evenodd" d="M8.19269 40.2651C8.01424 40.2651 7.97018 40.1756 8.05904 40.0426L8.9939 38.8405C9.08202 38.7068 9.30527 38.6179 9.48299 38.6179H25.3727C25.5511 38.6179 25.5952 38.7516 25.5063 38.8853L24.7499 40.0426C24.6611 40.1756 24.4385 40.3092 24.3049 40.3092L8.19269 40.2651ZM1.47169 44.3593C1.29397 44.3593 1.24918 44.2712 1.33804 44.1368L2.2729 42.9353C2.36175 42.8017 2.58427 42.7128 2.76272 42.7128H23.0579C23.2356 42.7128 23.3252 42.8465 23.2804 42.9801L22.9243 44.0479C22.8802 44.2264 22.7017 44.3152 22.524 44.3152L1.47169 44.3593ZM12.242 48.4542C12.0643 48.4542 12.0203 48.3205 12.1091 48.1868L12.7319 47.0743C12.8215 46.9406 12.9992 46.8077 13.1776 46.8077H22.0783C22.2567 46.8077 22.3456 46.9406 22.3456 47.1191L22.2574 48.1868C22.2574 48.3653 22.079 48.499 21.9453 48.499L12.242 48.4542ZM58.4416 39.4639C55.637 40.1763 53.7232 40.7102 50.9642 41.4218C50.2959 41.6002 50.2518 41.6443 49.6731 40.9768C49.0056 40.2204 48.5158 39.7305 47.5816 39.2855C44.7771 37.9063 42.0621 38.3066 39.5255 39.9538C36.4992 41.9116 34.9416 44.8043 34.9856 48.4094C35.0297 51.9704 37.4781 54.9079 40.9943 55.3977C44.0206 55.7979 46.5579 54.7294 48.5606 52.4602C48.9608 51.9704 49.317 51.4365 49.762 50.813H41.172C40.2379 50.813 40.0154 50.2343 40.3267 49.4779C40.9054 48.098 41.9732 45.784 42.596 44.6266C42.7303 44.3593 43.0417 43.9143 43.7093 43.9143H59.9096C59.8215 45.1164 59.8215 46.3179 59.643 47.52C59.1532 50.7241 57.9517 53.6616 55.9932 56.2429C52.7884 60.4715 48.6053 63.0969 43.3083 63.8092C38.9468 64.3879 34.8968 63.5419 31.3365 60.8717C28.0428 58.3792 26.1739 55.0856 25.684 50.9914C25.1053 46.1401 26.5293 41.778 29.4668 37.9504C32.6268 33.8115 36.8106 31.1853 41.9291 30.2505C46.1129 29.4941 50.1182 29.9839 53.7232 32.4316C56.082 33.9892 57.7733 36.1255 58.8859 38.7068C59.1532 39.1078 58.9755 39.3303 58.4408 39.4632L58.4416 39.4639Z" fill="#00ACD7"/>
<path d="M73.1731 64.0766C69.123 63.987 65.4284 62.8303 62.3132 60.1594C59.6871 57.8902 58.0406 54.9968 57.5067 51.5694C56.7055 46.5404 58.0847 42.0894 61.1117 38.1289C64.3606 33.8556 68.277 31.6304 73.5741 30.6955C78.1133 29.8951 82.3866 30.3401 86.2582 32.9655C89.7744 35.3691 91.9548 38.618 92.5334 42.8906C93.2899 48.8992 91.5545 53.7953 87.4149 57.979C84.4774 60.9606 80.8723 62.8303 76.7334 63.6756C75.5319 63.8981 74.3298 63.9429 73.1731 64.0766ZM83.7657 46.0954C83.7217 45.5167 83.7217 45.0717 83.6321 44.6266C82.8316 40.2204 78.7808 37.7279 74.553 38.7076C70.4133 39.6417 67.7432 42.2678 66.7642 46.4516C65.963 49.923 67.6543 53.4391 70.8584 54.8631C73.3068 55.9316 75.7544 55.798 78.1133 54.5965C81.6294 52.7716 83.5432 49.923 83.7657 46.0954Z" fill="#00ACD7"/>
</g>
</svg>
