<svg width="90" height="90" viewBox="0 0 90 90" fill="none" xmlns="http://www.w3.org/2000/svg">
<g filter="url(#filter0_d_493_1697)">
<rect x="4" y="2" width="81.69" height="81.69" rx="5" fill="#FFD600"/>
</g>
<g filter="url(#filter1_d_493_1697)">
<path d="M60.2349 66.8414C61.8052 69.3921 63.5116 71.836 67.1264 71.836C70.1628 71.836 71.7558 70.3271 71.7558 68.2393C71.7558 65.7408 70.1082 64.8536 66.768 63.3991L64.9367 62.6183C59.6515 60.3765 56.1366 57.5671 56.1366 51.633C56.1366 46.164 60.3232 42.0023 66.8654 42.0023C71.5242 42.0023 74.8715 43.6156 77.286 47.841L71.5811 51.4878C70.3262 49.2457 68.9691 48.363 66.8654 48.363C64.7188 48.363 63.3596 49.7176 63.3596 51.4878C63.3596 53.6752 64.721 54.5604 67.8639 55.915L69.6952 56.6958C75.9243 59.3483 79.4372 62.0578 79.4372 68.1485C79.4372 74.7113 74.2541 78.308 67.2966 78.308C60.4911 78.308 56.6266 74.8928 54.4754 70.6651L60.2349 66.8414ZM33.9432 67.0275C35.0914 69.0835 36.8366 70.6651 39.3463 70.6651C41.7471 70.6651 43.1292 69.7165 43.1292 66.029V42H50.6925V67.191C50.6925 74.8314 46.2607 78.308 39.7887 78.308C33.9409 78.308 29.7201 74.3459 28 70.6651L33.9432 67.0275Z" fill="#000001"/>
</g>
<defs>
<filter id="filter0_d_493_1697" x="0" y="0" width="89.6904" height="89.6899" filterUnits="userSpaceOnUse" color-interpolation-filters="sRGB">
<feFlood flood-opacity="0" result="BackgroundImageFix"/>
<feColorMatrix in="SourceAlpha" type="matrix" values="0 0 0 0 0 0 0 0 0 0 0 0 0 0 0 0 0 0 127 0" result="hardAlpha"/>
<feOffset dy="2"/>
<feGaussianBlur stdDeviation="2"/>
<feComposite in2="hardAlpha" operator="out"/>
<feColorMatrix type="matrix" values="0 0 0 0 0 0 0 0 0 0 0 0 0 0 0 0 0 0 0.2 0"/>
<feBlend mode="normal" in2="BackgroundImageFix" result="effect1_dropShadow_493_1697"/>
<feBlend mode="normal" in="SourceGraphic" in2="effect1_dropShadow_493_1697" result="shape"/>
</filter>
<filter id="filter1_d_493_1697" x="24" y="42" width="59.4375" height="44.3081" filterUnits="userSpaceOnUse" color-interpolation-filters="sRGB">
<feFlood flood-opacity="0" result="BackgroundImageFix"/>
<feColorMatrix in="SourceAlpha" type="matrix" values="0 0 0 0 0 0 0 0 0 0 0 0 0 0 0 0 0 0 127 0" result="hardAlpha"/>
<feOffset dy="4"/>
<feGaussianBlur stdDeviation="2"/>
<feComposite in2="hardAlpha" operator="out"/>
<feColorMatrix type="matrix" values="0 0 0 0 0 0 0 0 0 0 0 0 0 0 0 0 0 0 0.25 0"/>
<feBlend mode="normal" in2="BackgroundImageFix" result="effect1_dropShadow_493_1697"/>
<feBlend mode="normal" in="SourceGraphic" in2="effect1_dropShadow_493_1697" result="shape"/>
</filter>
</defs>
</svg>
