<svg width="82" height="82" viewBox="0 0 82 82" fill="none" xmlns="http://www.w3.org/2000/svg">
<g style="mix-blend-mode:luminosity">
<g style="mix-blend-mode:luminosity">
<path d="M19.3469 29.4048H34.7859V30.622H20.7563V39.847H33.9531V41.0642H20.7563V51.186H34.9781V52.4032H19.3469V29.4048ZM36.1953 29.4048H37.8609L45.1641 39.5267L52.5312 29.4048L62.6531 16.5923L45.9969 40.6157L54.5812 52.4032H52.8516L45.1 41.6407L37.2844 52.4032H35.6187L44.2672 40.6157L36.1953 29.4048V29.4048ZM55.2219 30.622V29.4048H72.8391V30.622H64.7031V52.4032H63.2938V30.622H55.2219ZM0 29.4048H1.72969L26.2016 65.7923L16.0797 52.4032L1.47344 31.1345L1.40938 52.4032H0V29.4048ZM72.7109 50.8017C73.0312 50.8017 73.2234 50.6095 73.2234 50.2892C73.2234 49.9688 73.0312 49.7767 72.7109 49.7767C72.3906 49.7767 72.1984 49.9688 72.1984 50.2892C72.1984 50.6095 72.4547 50.8017 72.7109 50.8017ZM74.1203 49.4563C74.1203 50.2892 74.7609 50.8657 75.6578 50.8657C76.6187 50.8657 77.1953 50.2892 77.1953 49.2642V45.7407H76.4266V49.2642C76.4266 49.8407 76.1703 50.097 75.6578 50.097C75.2094 50.097 74.8891 49.8407 74.8891 49.3923H74.1203V49.4563ZM78.1562 49.3923C78.2203 50.2892 78.925 50.8657 80.0781 50.8657C81.2312 50.8657 82 50.2892 82 49.3282C82 48.5595 81.5516 48.1751 80.5906 47.9188L80.0141 47.7907C79.3734 47.6626 79.1172 47.4063 79.1172 47.086C79.1172 46.6376 79.5016 46.3173 80.1422 46.3173C80.7187 46.3173 81.1031 46.5735 81.1672 47.086H81.9359C81.8719 46.2532 81.1672 45.6767 80.1422 45.6767C79.0531 45.6767 78.3484 46.2532 78.3484 47.1501C78.3484 47.8548 78.7328 48.3032 79.6297 48.4954L80.2703 48.6235C80.9109 48.7517 81.2313 49.0079 81.2313 49.3923C81.2313 49.8407 80.7828 50.161 80.1422 50.161C79.5016 50.161 78.9891 49.8407 78.925 49.3923H78.1562V49.3923Z" fill="white"/>
</g>
</g>
</svg>
