<svg width="78" height="85" viewBox="0 0 78 85" fill="none" xmlns="http://www.w3.org/2000/svg">
<path d="M35.4643 0.908084C37.6203 -0.300062 40.369 -0.305324 42.4711 0.908084L74.6584 18.8633C76.6713 19.9835 78.0187 22.2048 77.9998 24.501V60.5022C78.0133 62.8943 76.534 65.1637 74.4104 66.2623L42.3956 84.1351C42.2593 84.2094 42.121 84.2793 41.9801 84.3446C41.8394 84.4099 41.6966 84.4706 41.5515 84.5266C41.4067 84.5823 41.26 84.6335 41.1118 84.6797C40.9634 84.7259 40.8138 84.7672 40.6624 84.8036C40.5114 84.84 40.3593 84.8713 40.2061 84.8976C40.0528 84.9241 39.8988 84.9454 39.7441 84.9615C39.5896 84.9777 39.4345 84.9887 39.279 84.9947C39.1238 85.0007 38.9684 85.0016 38.813 84.9973C38.6573 84.993 38.5023 84.9837 38.3474 84.9694C38.1927 84.9548 38.0385 84.9352 37.885 84.9105C37.7315 84.8859 37.5789 84.8562 37.4274 84.8215C37.2758 84.7868 37.1257 84.7474 36.9768 84.7027C36.8279 84.6582 36.6807 84.6087 36.5351 84.5544C36.3896 84.5001 36.2463 84.4412 36.1046 84.3774C35.963 84.3137 35.8237 84.2453 35.6869 84.1724C35.5499 84.0994 35.4155 84.0222 35.2837 83.9404L25.6766 78.4469C25.0218 78.0601 24.2862 77.7535 23.8226 77.1268C24.2323 76.5829 24.9599 76.5135 25.5526 76.2734C26.8894 75.8522 28.1128 75.2068 29.3417 74.5239C29.6516 74.3108 30.0316 74.3907 30.328 74.5828L38.5202 79.2709C39.1052 79.6043 39.6979 79.1642 40.1993 78.8841L71.6346 61.3288C72.0228 61.1422 72.2382 60.7368 72.206 60.3156V24.6608C72.249 24.181 71.9715 23.7435 71.5323 23.5488L39.5983 5.75359C39.5524 5.72225 39.5046 5.69451 39.4548 5.67035C39.4047 5.64619 39.3532 5.62586 39.3001 5.60936C39.2471 5.59309 39.193 5.58065 39.1381 5.57228C39.083 5.56391 39.0279 5.5596 38.972 5.55937C38.9164 5.55937 38.8613 5.56343 38.8062 5.57156C38.7511 5.5797 38.6972 5.5919 38.644 5.60816C38.5908 5.62419 38.5391 5.64428 38.4891 5.66844C38.439 5.69235 38.3911 5.71986 38.3452 5.75096L6.45694 23.5835C6.02593 23.7782 5.72933 24.2102 5.78324 24.6902V60.3448C5.74553 60.7662 5.97203 61.1635 6.36266 61.3448L14.8839 66.1052C16.4846 66.9584 18.4492 67.4384 20.2116 66.8118C20.3073 66.7761 20.4014 66.7369 20.4942 66.6941C20.5868 66.6513 20.6777 66.6051 20.7669 66.5556C20.8561 66.5058 20.9433 66.453 21.0284 66.397C21.1135 66.3408 21.1962 66.2815 21.2769 66.219C21.3574 66.1569 21.4355 66.0916 21.5109 66.0231C21.5866 65.955 21.6593 65.8839 21.7294 65.8103C21.7995 65.7366 21.8667 65.6603 21.931 65.5816C21.9953 65.5029 22.0565 65.4218 22.1145 65.3386C22.1725 65.2551 22.2272 65.1697 22.2786 65.0824C22.3301 64.9949 22.3782 64.9057 22.423 64.8145C22.4677 64.7234 22.5088 64.6308 22.5462 64.5366C22.5837 64.4426 22.6175 64.3471 22.6478 64.2505C22.678 64.1536 22.7046 64.0561 22.7273 63.9573C22.75 63.8587 22.7689 63.7592 22.7839 63.6592C22.7991 63.559 22.8102 63.4586 22.8177 63.3576C22.8252 63.2567 22.8286 63.1555 22.8283 63.0543L22.8363 27.6131C22.7986 27.0876 23.2997 26.653 23.8146 26.7064H27.9107C28.4498 26.693 28.8728 27.2584 28.8 27.7863L28.7918 63.4516C28.7947 66.6197 27.4795 70.0652 24.5178 71.6199C20.8691 73.4866 16.358 73.0945 12.7521 71.2999L3.58978 66.2865C1.43379 65.2197 -0.0132042 62.9156 9.08541e-05 60.5263V24.5249C0.00129949 24.3795 0.00734277 24.2341 0.0182206 24.0891C0.0290984 23.9442 0.0448109 23.7995 0.0653579 23.6555C0.085905 23.5115 0.111287 23.3682 0.141503 23.2259C0.171719 23.0836 0.20677 22.9425 0.246414 22.8023C0.286299 22.6624 0.330536 22.5236 0.379607 22.3866C0.428678 22.2495 0.4821 22.1142 0.540357 21.9804C0.598372 21.847 0.66098 21.7154 0.72794 21.5858C0.794899 21.4564 0.866209 21.3294 0.941629 21.2045C1.01705 21.0797 1.09682 20.9574 1.18046 20.8378C1.26434 20.7185 1.35184 20.6018 1.44346 20.4879C1.53508 20.3741 1.63032 20.2635 1.72943 20.1559C1.82829 20.0485 1.93079 19.9442 2.03691 19.8435C2.14278 19.7428 2.25205 19.6457 2.36469 19.552C2.4771 19.4584 2.59264 19.3687 2.71133 19.2826C2.82978 19.1968 2.95113 19.1147 3.07538 19.0367C3.19939 18.9588 3.32581 18.8851 3.45489 18.8155L35.4643 0.908084ZM44.7455 25.8637C49.3995 25.597 54.3823 25.6876 58.57 27.9571C61.8119 29.6957 63.6094 33.3439 63.6686 36.9121C63.577 37.3922 63.0703 37.6588 62.6069 37.6242C61.2595 37.6213 59.9066 37.6428 58.5538 37.616C57.9797 37.6373 57.6483 37.1147 57.5756 36.6133C57.1876 34.9067 56.247 33.2185 54.6248 32.3945C52.1347 31.1598 49.2458 31.2211 46.5295 31.2479C44.5461 31.3545 42.4145 31.5224 40.7354 32.6746C39.4419 33.5493 39.054 35.3413 39.5147 36.7334C39.946 37.7548 41.1396 38.0827 42.1126 38.3867C47.7234 39.8374 53.6653 39.7202 59.171 41.6055C61.4481 42.3843 63.6768 43.8991 64.4583 46.2591C65.477 49.4217 65.0322 53.2033 62.7604 55.7421C60.9172 57.8328 58.2331 58.9422 55.5518 59.5875C51.9865 60.3742 48.2893 60.3929 44.6701 60.0408C41.2663 59.6569 37.7254 58.7714 35.0978 56.478C32.8505 54.5473 31.7564 51.5393 31.864 48.6379C31.891 48.1471 32.3842 47.8057 32.8611 47.8457H36.9035C37.4479 47.8084 37.8465 48.2724 37.8736 48.779C38.1243 50.3792 38.7414 52.1126 40.1749 53.0459C42.9398 54.8114 46.4081 54.6887 49.5719 54.7394C52.1939 54.6246 55.1367 54.5899 57.2792 52.8725C58.411 51.894 58.7424 50.2591 58.4381 48.851C58.1064 47.6618 56.8211 47.1097 55.7432 46.7177C50.2052 44.9843 44.1958 45.6136 38.7117 43.651C36.4858 42.8722 34.3325 41.4002 33.4782 39.1361C32.2846 35.936 32.8316 31.9704 35.3458 29.5171C37.7711 27.0771 41.3284 26.1357 44.6969 25.7996L44.7455 25.8637Z" fill="#8CC84B"/>
</svg>
