<svg width="86" height="86" viewBox="0 0 86 86" fill="none" xmlns="http://www.w3.org/2000/svg">
<g style="mix-blend-mode:luminosity">
<path d="M43 22.198C20.3309 22.198 1.95245 31.5115 1.95245 42.9999C1.95245 54.4883 20.3309 63.8018 43 63.8018C65.669 63.8018 84.0475 54.4883 84.0475 42.9999C84.0475 31.5115 65.669 22.198 43 22.198ZM32.3192 47.0527C31.3396 47.9691 30.2518 48.3474 29.0539 48.7371C27.8559 49.1274 26.3314 49.0468 24.4777 49.0468H20.2765L19.1121 55.7655H14.2068L18.584 32.9218H28.0172C30.8552 32.9218 32.9252 33.7381 34.2266 35.2277C35.5281 36.7172 35.9191 38.8316 35.4004 41.501C35.1861 42.6008 34.8253 43.6234 34.316 44.5345C33.7882 45.4745 33.1142 46.3246 32.3192 47.0527V47.0527ZM46.6375 49.0468L48.5732 39.3584C48.7936 38.2242 48.7129 37.3817 48.3306 36.9698C47.9477 36.5573 47.1334 36.2812 45.8884 36.2812H41.9982L39.4915 49.0468H34.6244L39.0017 26.8749H43.8687L42.705 32.9218H47.0406C49.7691 32.9218 51.6504 33.4694 52.6857 34.4207C53.7211 35.3721 54.0315 36.6756 53.6176 38.8067L51.5812 49.0468H46.6375ZM73.6865 41.5366C73.4729 42.6364 73.1114 43.6416 72.6028 44.552C72.0935 45.4637 71.4284 46.2975 70.6067 47.0527C69.6271 47.9691 68.5386 48.3474 67.3413 48.7371C66.1441 49.1274 64.6182 49.0468 62.7645 49.0468H58.5633L57.3996 55.7655H52.4942L56.8708 32.9218H66.3046C69.1426 32.9218 71.2127 33.7381 72.5134 35.2277C73.8135 36.7172 74.2052 38.8679 73.6865 41.5366V41.5366ZM64.4456 36.2812H61.0855L59.2533 45.6874H62.2378C64.2144 45.6874 65.6885 45.4926 66.656 44.7468C67.6249 44.0024 68.2773 42.8467 68.6166 41.1046C68.9418 39.4309 68.7939 38.1255 68.1731 37.4375C67.5516 36.7495 66.3093 36.2812 64.4456 36.2812V36.2812ZM26.1588 36.2812H22.798L20.9658 45.6874H23.9496C25.927 45.6874 27.4004 45.4926 28.3686 44.7468C29.3367 44.0024 29.9898 42.8467 30.3284 41.1046C30.6536 39.4309 30.5058 38.1255 29.885 37.4375C29.2642 36.7495 28.0225 36.2812 26.1588 36.2812Z" fill="#6181B6"/>
</g>
</svg>
