<svg width="86" height="86" viewBox="0 0 86 86" fill="none" xmlns="http://www.w3.org/2000/svg">
<mask id="mask0_5_1852" style="mask-type:luminance" maskUnits="userSpaceOnUse" x="2" y="2" width="61" height="61">
<path d="M2.75598 2.97534H62.4933V62.7796H2.75598V2.97534Z" fill="white"/>
</mask>
<g mask="url(#mask0_5_1852)">
<mask id="mask1_5_1852" style="mask-type:luminance" maskUnits="userSpaceOnUse" x="2" y="2" width="61" height="61">
<path d="M42.7265 2.96606C22.2993 2.96606 23.5747 11.825 23.5747 11.825L23.5973 21.003H43.0889V23.7586H15.8553C15.8553 23.7586 2.78467 22.276 2.78467 42.888C2.78444 63.5016 14.1931 62.7706 14.1931 62.7706H21.0014V53.2044C21.0014 53.2044 20.6344 41.7946 32.2278 41.7946H51.561C51.561 41.7946 62.4212 41.9711 62.4212 31.2966V13.6471C62.4212 13.6471 64.072 2.96606 42.7265 2.96606ZM31.9774 9.13768C33.9164 9.13768 35.4833 10.7054 35.4833 12.6449C35.4833 14.5846 33.9164 16.1521 31.9774 16.1521C30.0377 16.1521 28.4705 14.5846 28.4705 12.6449C28.4705 10.7054 30.0377 9.13768 31.9774 9.13768Z" fill="white"/>
</mask>
<g mask="url(#mask1_5_1852)">
<path d="M2.78387 2.9751V63.5019H64.0714V2.9751H2.78387Z" fill="url(#paint0_linear_5_1852)"/>
</g>
</g>
<mask id="mask2_5_1852" style="mask-type:luminance" maskUnits="userSpaceOnUse" x="23" y="23" width="61" height="61">
<path d="M23.564 23.1621H83.248V83.041H23.564V23.1621Z" fill="white"/>
</mask>
<g mask="url(#mask2_5_1852)">
<mask id="mask3_5_1852" style="mask-type:luminance" maskUnits="userSpaceOnUse" x="23" y="23" width="61" height="61">
<path d="M43.3058 83.0188C63.7313 83.0188 62.4552 74.1584 62.4552 74.1584L62.4332 64.9797H42.9403V62.2256H70.1743C70.1743 62.2256 83.2461 63.7067 83.2461 43.096C83.2461 22.4829 71.8379 23.2139 71.8379 23.2139H65.0293V32.7787C65.0293 32.7787 65.3948 44.1896 53.8036 44.1896H34.4684C34.4684 44.1896 23.6078 44.0131 23.6078 54.6886V72.3371C23.6078 72.3371 21.9586 83.0188 43.3058 83.0188ZM54.0525 76.8461C52.115 76.8461 50.5459 75.2768 50.5459 73.3391C50.5459 71.3981 52.115 69.8319 54.0525 69.8319C55.9933 69.8319 57.5592 71.3981 57.5592 73.3391C57.5592 75.2768 55.9933 76.8461 54.0525 76.8461Z" fill="white"/>
</mask>
<g mask="url(#mask3_5_1852)">
<path d="M21.9589 22.4824V83.0184H83.2465V22.4824H21.9589Z" fill="url(#paint1_linear_5_1852)"/>
</g>
</g>
<defs>
<linearGradient id="paint0_linear_5_1852" x1="3.03279" y1="2.72359" x2="64.2501" y2="63.3214" gradientUnits="userSpaceOnUse">
<stop stop-color="#387EB8"/>
<stop offset="0.125" stop-color="#387EB8"/>
<stop offset="0.140625" stop-color="#387EB8"/>
<stop offset="0.15625" stop-color="#387DB7"/>
<stop offset="0.171875" stop-color="#387DB6"/>
<stop offset="0.1875" stop-color="#387CB5"/>
<stop offset="0.203125" stop-color="#387CB4"/>
<stop offset="0.21875" stop-color="#387BB3"/>
<stop offset="0.234375" stop-color="#387BB2"/>
<stop offset="0.25" stop-color="#387AB1"/>
<stop offset="0.265625" stop-color="#387AB1"/>
<stop offset="0.28125" stop-color="#3879B0"/>
<stop offset="0.296875" stop-color="#3879AF"/>
<stop offset="0.3125" stop-color="#3878AE"/>
<stop offset="0.328125" stop-color="#3778AD"/>
<stop offset="0.34375" stop-color="#3777AC"/>
<stop offset="0.359375" stop-color="#3777AB"/>
<stop offset="0.375" stop-color="#3776AB"/>
<stop offset="0.390625" stop-color="#3776AA"/>
<stop offset="0.40625" stop-color="#3775A9"/>
<stop offset="0.421875" stop-color="#3775A8"/>
<stop offset="0.4375" stop-color="#3774A7"/>
<stop offset="0.453125" stop-color="#3774A6"/>
<stop offset="0.46875" stop-color="#3773A5"/>
<stop offset="0.484375" stop-color="#3773A4"/>
<stop offset="0.494335" stop-color="#3772A4"/>
<stop offset="0.5" stop-color="#3772A3"/>
<stop offset="0.505665" stop-color="#3772A3"/>
<stop offset="0.515625" stop-color="#3771A2"/>
<stop offset="0.53125" stop-color="#3771A2"/>
<stop offset="0.546875" stop-color="#3771A1"/>
<stop offset="0.5625" stop-color="#3770A0"/>
<stop offset="0.578125" stop-color="#37709F"/>
<stop offset="0.59375" stop-color="#376F9E"/>
<stop offset="0.609375" stop-color="#376F9D"/>
<stop offset="0.625" stop-color="#376E9D"/>
<stop offset="0.640625" stop-color="#366E9C"/>
<stop offset="0.65625" stop-color="#366D9B"/>
<stop offset="0.671875" stop-color="#366D9A"/>
<stop offset="0.6875" stop-color="#366C99"/>
<stop offset="0.703125" stop-color="#366C98"/>
<stop offset="0.71875" stop-color="#366B97"/>
<stop offset="0.734375" stop-color="#366B97"/>
<stop offset="0.75" stop-color="#366A96"/>
<stop offset="0.765625" stop-color="#366A95"/>
<stop offset="0.78125" stop-color="#366994"/>
<stop offset="0.8125" stop-color="#366994"/>
<stop offset="0.875" stop-color="#366994"/>
<stop offset="1" stop-color="#366994"/>
</linearGradient>
<linearGradient id="paint1_linear_5_1852" x1="21.6308" y1="22.8295" x2="84.2193" y2="81.9893" gradientUnits="userSpaceOnUse">
<stop stop-color="#FFE052"/>
<stop offset="0.125" stop-color="#FFE052"/>
<stop offset="0.1875" stop-color="#FFE052"/>
<stop offset="0.21875" stop-color="#FFE052"/>
<stop offset="0.234375" stop-color="#FFDF51"/>
<stop offset="0.25" stop-color="#FFDF51"/>
<stop offset="0.265625" stop-color="#FFDE50"/>
<stop offset="0.28125" stop-color="#FFDD4F"/>
<stop offset="0.296875" stop-color="#FFDD4E"/>
<stop offset="0.3125" stop-color="#FFDC4E"/>
<stop offset="0.328125" stop-color="#FFDB4D"/>
<stop offset="0.34375" stop-color="#FFDB4C"/>
<stop offset="0.359375" stop-color="#FFDA4B"/>
<stop offset="0.375" stop-color="#FFD94B"/>
<stop offset="0.390625" stop-color="#FFD94A"/>
<stop offset="0.40625" stop-color="#FFD849"/>
<stop offset="0.421875" stop-color="#FFD748"/>
<stop offset="0.4375" stop-color="#FFD748"/>
<stop offset="0.453125" stop-color="#FFD647"/>
<stop offset="0.46875" stop-color="#FFD546"/>
<stop offset="0.482837" stop-color="#FFD545"/>
<stop offset="0.484375" stop-color="#FFD445"/>
<stop offset="0.5" stop-color="#FFD445"/>
<stop offset="0.515625" stop-color="#FFD444"/>
<stop offset="0.517163" stop-color="#FFD343"/>
<stop offset="0.53125" stop-color="#FFD343"/>
<stop offset="0.546875" stop-color="#FFD242"/>
<stop offset="0.5625" stop-color="#FFD242"/>
<stop offset="0.578125" stop-color="#FFD141"/>
<stop offset="0.59375" stop-color="#FFD040"/>
<stop offset="0.609375" stop-color="#FFD03F"/>
<stop offset="0.625" stop-color="#FFCF3F"/>
<stop offset="0.640625" stop-color="#FFCE3E"/>
<stop offset="0.65625" stop-color="#FFCE3D"/>
<stop offset="0.671875" stop-color="#FFCD3C"/>
<stop offset="0.6875" stop-color="#FFCC3C"/>
<stop offset="0.703125" stop-color="#FFCC3B"/>
<stop offset="0.71875" stop-color="#FFCB3A"/>
<stop offset="0.734375" stop-color="#FFCA39"/>
<stop offset="0.75" stop-color="#FFCA39"/>
<stop offset="0.765625" stop-color="#FFC938"/>
<stop offset="0.78125" stop-color="#FFC837"/>
<stop offset="0.796875" stop-color="#FFC836"/>
<stop offset="0.8125" stop-color="#FFC735"/>
<stop offset="0.828125" stop-color="#FFC635"/>
<stop offset="0.84375" stop-color="#FFC634"/>
<stop offset="0.859375" stop-color="#FFC533"/>
<stop offset="0.875" stop-color="#FFC432"/>
<stop offset="0.890625" stop-color="#FFC432"/>
<stop offset="0.90625" stop-color="#FFC331"/>
<stop offset="0.9375" stop-color="#FFC331"/>
<stop offset="1" stop-color="#FFC331"/>
</linearGradient>
</defs>
</svg>
