<svg width="90" height="85" viewBox="0 0 90 85" fill="none" xmlns="http://www.w3.org/2000/svg">
<path d="M52 42C52 42.1308 51.9968 42.2619 51.9903 42.3924C51.9838 42.5232 51.9744 42.6538 51.9614 42.7841C51.9488 42.9144 51.9326 43.0444 51.9134 43.1737C51.8943 43.3033 51.8719 43.4323 51.8463 43.5607C51.8207 43.6892 51.7921 43.8168 51.7602 43.9439C51.7284 44.0709 51.6936 44.197 51.6555 44.3223C51.6175 44.4477 51.5764 44.5718 51.5324 44.6951C51.4881 44.8184 51.4411 44.9405 51.3911 45.0614C51.3409 45.1825 51.2879 45.3021 51.2319 45.4205C51.176 45.5388 51.117 45.6557 51.0553 45.7711C50.9937 45.8867 50.9292 46.0006 50.8618 46.1128C50.7944 46.2252 50.7245 46.3358 50.6517 46.4445C50.579 46.5534 50.5037 46.6603 50.4256 46.7655C50.3477 46.8707 50.2671 46.9739 50.1841 47.0751C50.101 47.1763 50.0154 47.2756 49.9276 47.3725C49.8396 47.4695 49.7495 47.5643 49.6568 47.6568C49.5642 47.7495 49.4695 47.8398 49.3725 47.9276C49.2755 48.0156 49.1762 48.1011 49.0752 48.1842C48.974 48.2673 48.8708 48.3476 48.7656 48.4257C48.6604 48.5037 48.5534 48.5791 48.4445 48.6517C48.3358 48.7246 48.2251 48.7944 48.1127 48.8618C48.0005 48.9292 47.8866 48.9936 47.7712 49.0553C47.6558 49.1172 47.5389 49.1759 47.4205 49.2319C47.3021 49.2881 47.1824 49.341 47.0616 49.391C46.9404 49.4412 46.8183 49.4882 46.6952 49.5325C46.5718 49.5765 46.4475 49.6175 46.3223 49.6556C46.197 49.6936 46.0709 49.7285 45.9438 49.7603C45.8167 49.7921 45.6891 49.8207 45.5608 49.8463C45.4322 49.8719 45.3033 49.8943 45.1737 49.9135C45.0444 49.9326 44.9143 49.9488 44.784 49.9615C44.6539 49.9744 44.5233 49.9841 44.3925 49.9903C44.2617 49.9968 44.1308 50 44 50C43.8689 50 43.7381 49.9968 43.6075 49.9903C43.4767 49.9841 43.3461 49.9744 43.2158 49.9615C43.0854 49.9488 42.9556 49.9326 42.826 49.9135C42.6967 49.8943 42.5676 49.8719 42.4392 49.8463C42.3109 49.8207 42.1831 49.7921 42.0562 49.7603C41.9291 49.7285 41.803 49.6936 41.6777 49.6556C41.5523 49.6175 41.4282 49.5765 41.3048 49.5325C41.1814 49.4882 41.0593 49.4412 40.9384 49.391C40.8176 49.341 40.6979 49.2881 40.5795 49.2319C40.4611 49.1759 40.3442 49.1172 40.2288 49.0553C40.1134 48.9936 39.9995 48.9292 39.8871 48.8618C39.7749 48.7944 39.6642 48.7246 39.5553 48.6517C39.4466 48.5791 39.3394 48.5037 39.2344 48.4257C39.1292 48.3476 39.026 48.2673 38.9248 48.1842C38.8235 48.1011 38.7245 48.0156 38.6275 47.9276C38.5305 47.8398 38.4358 47.7495 38.343 47.6568C38.2505 47.5643 38.1602 47.4695 38.0724 47.3725C37.9843 47.2756 37.899 47.1763 37.8159 47.0751C37.7329 46.9739 37.6523 46.8707 37.5742 46.7655C37.4963 46.6603 37.421 46.5534 37.3481 46.4445C37.2755 46.3358 37.2053 46.2252 37.1382 46.1128C37.0708 46.0006 37.0063 45.8867 36.9447 45.7711C36.8827 45.6557 36.824 45.5388 36.7681 45.4205C36.7121 45.3021 36.6589 45.1825 36.6089 45.0614C36.5589 44.9405 36.5116 44.8184 36.4676 44.6951C36.4233 44.5718 36.3823 44.4477 36.3445 44.3223C36.3064 44.197 36.2714 44.0709 36.2398 43.9439C36.2079 43.8168 36.1791 43.6892 36.1537 43.5607C36.1281 43.4323 36.1057 43.3033 36.0866 43.1737C36.0674 43.0444 36.0512 42.9144 36.0386 42.7841C36.0256 42.6538 36.0159 42.5232 36.0095 42.3924C36.0032 42.2619 36 42.1308 36 42C36 41.869 36.0032 41.7381 36.0095 41.6073C36.0159 41.4765 36.0256 41.3462 36.0386 41.2159C36.0512 41.0856 36.0674 40.9556 36.0866 40.826C36.1057 40.6967 36.1281 40.5677 36.1537 40.4393C36.1791 40.3108 36.2079 40.1832 36.2398 40.0561C36.2714 39.9291 36.3064 39.803 36.3445 39.6777C36.3823 39.5523 36.4233 39.428 36.4676 39.3049C36.5116 39.1816 36.5589 39.0595 36.6089 38.9384C36.6589 38.8175 36.7121 38.6979 36.7681 38.5795C36.824 38.4612 36.8827 38.3443 36.9447 38.2287C37.0063 38.1133 37.0708 37.9994 37.1382 37.887C37.2053 37.7748 37.2755 37.6642 37.3481 37.5553C37.421 37.4466 37.4963 37.3394 37.5742 37.2342C37.6523 37.1293 37.7329 37.0261 37.8159 36.9249C37.899 36.8237 37.9843 36.7244 38.0724 36.6275C38.1602 36.5305 38.2505 36.4357 38.343 36.343C38.4358 36.2505 38.5305 36.1602 38.6275 36.0724C38.7245 35.9844 38.8235 35.8989 38.9248 35.8158C39.026 35.7327 39.1292 35.6522 39.2344 35.5743C39.3394 35.4963 39.4466 35.4209 39.5553 35.348C39.6642 35.2754 39.7749 35.2053 39.8871 35.1382C39.9995 35.0708 40.1134 35.0064 40.2288 34.9445C40.3442 34.8828 40.4611 34.8238 40.5795 34.7679C40.6979 34.7119 40.8176 34.659 40.9384 34.6087C41.0593 34.5588 41.1814 34.5118 41.3048 34.4675C41.4282 34.4235 41.5523 34.3825 41.6777 34.3444C41.803 34.3064 41.9291 34.2715 42.0562 34.2397C42.1831 34.2079 42.3109 34.179 42.4392 34.1537C42.5676 34.1281 42.6967 34.1057 42.826 34.0865C42.9556 34.0674 43.0854 34.0512 43.2158 34.0383C43.3461 34.0256 43.4767 34.0159 43.6075 34.0094C43.7381 34.003 43.8689 34 44 34C44.1308 34 44.2617 34.003 44.3925 34.0094C44.5233 34.0159 44.6539 34.0256 44.784 34.0383C44.9143 34.0512 45.0444 34.0674 45.1737 34.0865C45.3033 34.1057 45.4322 34.1281 45.5608 34.1537C45.6891 34.179 45.8167 34.2079 45.9438 34.2397C46.0709 34.2715 46.197 34.3064 46.3223 34.3444C46.4475 34.3825 46.5718 34.4235 46.6952 34.4675C46.8183 34.5118 46.9404 34.5588 47.0616 34.6087C47.1824 34.659 47.3021 34.7119 47.4205 34.7679C47.5389 34.8238 47.6558 34.8828 47.7712 34.9445C47.8866 35.0061 48.0005 35.0708 48.1127 35.1382C48.2251 35.2053 48.3358 35.2754 48.4445 35.348C48.5534 35.4209 48.6604 35.4963 48.7656 35.5743C48.8708 35.6522 48.974 35.7327 49.0752 35.8158C49.1762 35.8989 49.2755 35.9844 49.3725 36.0722C49.4695 36.1602 49.5642 36.2505 49.6568 36.343C49.7495 36.4357 49.8396 36.5305 49.9276 36.6275C50.0154 36.7244 50.101 36.8237 50.1841 36.9249C50.2671 37.0261 50.3477 37.1293 50.4256 37.2342C50.5037 37.3394 50.579 37.4466 50.6517 37.5553C50.7245 37.6642 50.7944 37.7748 50.8618 37.8872C50.9292 37.9994 50.9937 38.1133 51.0553 38.2287C51.117 38.3443 51.176 38.4612 51.2319 38.5795C51.2879 38.6979 51.3409 38.8175 51.3911 38.9384C51.4411 39.0595 51.4881 39.1816 51.5324 39.3049C51.5764 39.428 51.6175 39.5523 51.6555 39.6777C51.6936 39.803 51.7284 39.9291 51.7602 40.0561C51.7921 40.1832 51.8207 40.3108 51.8463 40.4393C51.8719 40.5677 51.8943 40.6967 51.9134 40.826C51.9326 40.9556 51.9488 41.0856 51.9614 41.2159C51.9744 41.3462 51.9838 41.4765 51.9903 41.6073C51.9968 41.7381 52 41.869 52 42Z" fill="#00D8FF"/>
<mask id="mask0_493_1760" style="mask-type:luminance" maskUnits="userSpaceOnUse" x="0" y="3" width="90" height="78">
<path d="M0 3.95386H90V80.3931H0V3.95386Z" fill="white"/>
</mask>
<g mask="url(#mask0_493_1760)">
<path d="M45.0002 25.7271C55.7907 25.7271 65.8148 27.2757 73.373 29.8783C82.4797 33.0142 88.0784 37.7671 88.0784 42.0711C88.0784 46.5559 82.1449 51.6055 72.3656 54.8463C64.9725 57.2965 55.2435 58.5753 45.0002 58.5753C34.4985 58.5753 24.5541 57.3749 17.0773 54.8195C7.61836 51.5855 1.9209 46.4707 1.9209 42.0711C1.9209 37.8021 7.2668 33.0856 16.2453 29.9545C23.8315 27.3092 34.1027 25.7271 44.9994 25.7271H45.0002Z" stroke="#00D8FF"/>
</g>
<mask id="mask1_493_1760" style="mask-type:luminance" maskUnits="userSpaceOnUse" x="0" y="0" width="90" height="85">
<path d="M0 0H90V84.291H0V0Z" fill="white"/>
</mask>
<g mask="url(#mask1_493_1760)">
<path d="M30.7759 33.9444C36.1666 24.5952 42.5154 16.6839 48.5452 11.4347C55.8103 5.11105 62.7229 2.63437 66.4509 4.78422C70.3353 7.02478 71.7441 14.6892 69.6655 24.7818C68.0955 32.4117 64.3415 41.4799 59.2243 50.3554C53.9778 59.4548 47.9703 67.4718 42.0222 72.6715C34.496 79.252 27.2196 81.6335 23.4101 79.4354C19.7126 77.3043 18.2988 70.3148 20.0724 60.9715C21.5711 53.0767 25.3321 43.3871 30.7737 33.9462L30.7759 33.9444Z" stroke="#00D8FF"/>
<path d="M29.8631 50.1418C24.458 40.803 20.7767 31.3493 19.2403 23.5025C17.391 14.0486 18.6986 6.82041 22.4226 4.66356C26.3033 2.41651 33.6454 5.02312 41.3485 11.8645C47.1729 17.037 53.1535 24.8176 58.285 33.6838C63.5464 42.7745 67.4901 51.9843 69.024 59.735C70.9652 69.5435 69.3941 77.0372 65.5874 79.2421C61.8936 81.3809 55.1342 79.1166 47.9268 72.9129C41.8373 67.6715 35.322 59.5728 29.8626 50.1401L29.8631 50.1418Z" stroke="#00D8FF"/>
</g>
</svg>
