<svg width="90" height="90" viewBox="0 0 90 90" fill="none" xmlns="http://www.w3.org/2000/svg">
<g style="mix-blend-mode:luminosity">
<path d="M45.0029 18.0015C33.0027 18.0015 25.5053 23.9991 22.5029 35.9994C27.0015 30.001 32.2532 27.7517 38.2515 29.2515C41.6764 30.1051 44.124 32.5885 46.8346 35.3405C51.246 39.8173 56.3521 45.0001 67.5029 45.0001C79.5025 45.0001 87.0006 39.0017 90.0029 26.9987C85.5036 33.0005 80.2527 35.2498 74.2536 33.7501C70.8294 32.8958 68.3847 30.413 65.6706 27.661C61.262 23.1842 56.1573 18.0015 45.0029 18.0015V18.0015ZM22.5029 45.0001C10.5034 45.0001 3.00527 50.9984 0.00292969 63.0015C4.50152 56.9996 9.75246 54.7503 15.7515 56.2501C19.1764 57.1044 21.624 59.5871 24.3346 62.3391C28.746 66.8159 33.8521 71.9987 45.0029 71.9987C57.0025 71.9987 64.5006 66.001 67.5029 54.0008C63.0036 59.9991 57.7527 62.2484 51.7536 60.7487C48.3294 59.8951 45.8846 57.4116 43.1706 54.6596C38.762 50.1828 33.6573 45.0001 22.5029 45.0001Z" fill="url(#paint0_linear_176_1703)"/>
</g>
<defs>
<linearGradient id="paint0_linear_176_1703" x1="-2.40513" y1="35.1197" x2="75.2721" y2="80.0037" gradientUnits="userSpaceOnUse">
<stop stop-color="#2298BD"/>
<stop offset="1" stop-color="#0ED7B5"/>
</linearGradient>
</defs>
</svg>
